<?xml version="1.0" ?><svg height="200px" id="Layer_1" style="enable-background:new 0 0 200 200;" version="1.1" viewBox="0 0 200 200" width="200px" xml:space="preserve" xmlns="http://www.w3.org/2000/svg" xmlns:xlink="http://www.w3.org/1999/xlink"><style type="text/css">
	.st0{fill:#71A517;}
	.st1{fill:#FAD50A;}
	.st2{fill:#FAD50A;stroke:#2B2B2B;stroke-width:5;stroke-linecap:round;stroke-linejoin:round;stroke-miterlimit:10;}
	.st3{fill:#FFFFFF;stroke:#2B2B2B;stroke-width:5;stroke-linecap:round;stroke-linejoin:round;stroke-miterlimit:10;}
	.st4{fill:#7B3D72;}
	.st5{fill:#F2433B;}
	.st6{fill:#F2433B;stroke:#2B2B2B;stroke-width:6;stroke-linecap:round;stroke-linejoin:round;stroke-miterlimit:10;}
	.st7{fill:#FFFFFF;stroke:#2B2B2B;stroke-width:6;stroke-linecap:round;stroke-linejoin:round;stroke-miterlimit:10;}
	.st8{fill:#DE3727;stroke:#2B2B2B;stroke-width:6;stroke-linecap:round;stroke-linejoin:round;stroke-miterlimit:10;}
	.st9{fill:#8EBF04;}
	.st10{fill:#8EBF04;stroke:#2B2B2B;stroke-width:6;stroke-linecap:round;stroke-linejoin:round;stroke-miterlimit:10;}
	.st11{fill:#003A52;}
	.st12{fill:#7B3D72;stroke:#2B2B2B;stroke-width:6;stroke-linecap:round;stroke-linejoin:round;stroke-miterlimit:10;}
	.st13{fill:#2B2B2B;}
	.st14{fill:none;stroke:#2B2B2B;stroke-width:6;stroke-linecap:round;stroke-linejoin:round;stroke-miterlimit:10;}
	.st15{fill:#F78D0F;}
	.st16{fill:#F78D0F;stroke:#2B2B2B;stroke-width:6;stroke-linecap:round;stroke-linejoin:round;stroke-miterlimit:10;}
</style><g><circle class="st5" cx="100" cy="100" r="78.6"/><g><g><path class="st7" d="M99.5,75.6c0,0-0.5-23.7-20.6-25.9c-20.1-2.1-21.1-4.6-21.1-4.6S71.2,78.7,86.7,78     c15.5-0.8,12.3-2.3,12.3-2.3"/><path class="st7" d="M100,75.6c0,0,0.5-23.7,20.6-25.9c20.1-2.1,21.1-4.6,21.1-4.6S128.2,78.7,112.8,78     c-15.5-0.8-12.3-2.3-12.3-2.3"/></g><path class="st6" d="M100.3,159.5c0,0,3.5,0.4,10.8-7.3c7.2-7.7,30.5-35.6,32.1-52.5c1.9-19.4-5.6-26.7-5.6-26.7    s-15.3-17.6-37.5,3c-22.3-20.5-37.5-3-37.5-3s-7.5,7.3-5.6,26.7c1.7,16.8,24.9,44.8,32.1,52.5c7.2,7.7,10.8,7.3,10.8,7.3"/></g><line class="st7" x1="115.4" x2="115.5" y1="103.4" y2="112.1"/><line class="st7" x1="120.8" x2="120.9" y1="80.4" y2="89.2"/><line class="st7" x1="109.1" x2="109.1" y1="126.1" y2="134.8"/><line class="st7" x1="100" x2="100" y1="93.9" y2="102.7"/><line class="st7" x1="90.8" x2="90.8" y1="126.2" y2="134.9"/><line class="st7" x1="82.6" x2="82.6" y1="103.4" y2="112.2"/><line class="st7" x1="76.4" x2="76.4" y1="80.4" y2="89.2"/></g></svg>