<?xml version="1.0" encoding="utf-8"?>
<!-- Generator: Adobe Illustrator 23.0.3, SVG Export Plug-In . SVG Version: 6.00 Build 0)  -->
<svg version="1.1" id="Icons" xmlns="http://www.w3.org/2000/svg" xmlns:xlink="http://www.w3.org/1999/xlink" x="0px" y="0px"
	 viewBox="0 0 32 32" style="enable-background:new 0 0 32 32;" xml:space="preserve">
<path d="M30,13.5C30,9.9,27.1,7,23.5,7c-0.2,0-0.4,0-0.6,0c-1.4-2.4-4-4-6.9-4c-3,0-5.6,1.6-6.9,4C8.9,7,8.7,7,8.5,7
	C4.9,7,2,9.9,2,13.5c0,3.2,2.4,5.9,5.4,6.4l-0.4,8c0,0.3,0.1,0.5,0.3,0.7C7.5,28.9,7.7,29,8,29h16c0.3,0,0.5-0.1,0.7-0.3
	c0.2-0.2,0.3-0.5,0.3-0.7l-0.4-8C27.6,19.4,30,16.7,30,13.5z M13,23.9c-0.1,0.5-0.5,0.8-1,0.8c-0.1,0-0.1,0-0.2,0
	c-0.5-0.1-0.9-0.6-0.8-1.2l0.5-2.7c0.1-0.5,0.6-0.9,1.2-0.8c0.5,0.1,0.9,0.6,0.8,1.2L13,23.9z M17,24c0,0.6-0.4,1-1,1s-1-0.4-1-1v-3
	c0-0.6,0.4-1,1-1s1,0.4,1,1V24z M20.1,24.7c-0.1,0-0.1,0-0.2,0c-0.5,0-0.9-0.3-1-0.8l-0.5-2.7c-0.1-0.5,0.3-1.1,0.8-1.2
	c0.5-0.1,1.1,0.3,1.2,0.8l0.5,2.7C21,24.1,20.7,24.6,20.1,24.7z"/>
</svg>
